<svg xmlns="http://www.w3.org/2000/svg" xmlns:xlink="http://www.w3.org/1999/xlink" width="400" zoomAndPan="magnify" viewBox="0 0 300 299.999988" height="400" preserveAspectRatio="xMidYMid meet" version="1.0"><path fill="#004aad" d="M 36.882812 296.90625 C 51.570312 296.90625 61.855469 289.5625 72.140625 283.6875 C 80.953125 279.277344 89.769531 273.402344 100.050781 268.996094 C 147.0625 244.019531 194.070312 217.578125 241.082031 191.132812 C 255.773438 183.789062 274.871094 176.441406 285.15625 163.222656 C 288.09375 158.8125 292.5 152.9375 291.03125 145.59375 C 286.625 129.433594 266.058594 123.558594 252.835938 116.210938 C 220.515625 98.582031 186.726562 79.484375 154.40625 61.855469 C 142.65625 54.511719 125.027344 41.289062 110.335938 51.570312 C 104.457031 54.511719 101.519531 57.449219 100.050781 61.855469 C 98.582031 67.730469 100.050781 75.078125 100.050781 80.953125 L 100.050781 127.964844 C 100.050781 141.1875 98.582031 151.46875 107.398438 157.34375 C 110.335938 158.8125 116.210938 160.285156 120.617188 158.8125 C 135.308594 152.9375 130.902344 126.496094 130.902344 105.929688 L 130.902344 89.769531 C 155.875 102.988281 180.851562 116.210938 205.824219 127.964844 C 214.640625 132.371094 229.328125 136.777344 232.269531 148.53125 C 235.207031 161.753906 207.292969 172.035156 198.480469 176.441406 L 97.113281 233.738281 C 89.769531 238.144531 70.671875 252.835938 58.917969 248.429688 C 54.511719 246.957031 51.570312 242.550781 51.570312 239.613281 C 50.101562 233.738281 50.101562 224.921875 50.101562 217.578125 L 50.101562 91.238281 C 50.101562 79.484375 48.632812 64.792969 53.042969 57.449219 C 63.324219 42.757812 86.828125 69.199219 94.175781 45.695312 C 95.644531 39.820312 92.707031 33.941406 89.769531 31.003906 C 83.890625 22.191406 57.449219 8.96875 47.164062 6.03125 C 44.226562 4.5625 36.882812 3.09375 32.472656 3.09375 C 7.5 7.5 13.375 47.164062 13.375 76.546875 L 13.375 221.984375 C 13.375 244.019531 10.4375 273.402344 19.253906 286.625 C 23.660156 293.96875 28.066406 293.96875 36.882812 296.90625 Z M 113.273438 201.417969 C 135.308594 201.417969 136.777344 173.503906 116.210938 169.097656 C 104.457031 167.628906 95.644531 179.382812 98.582031 189.664062 C 101.519531 197.011719 105.929688 198.480469 113.273438 201.417969 Z M 113.273438 201.417969 " fill-opacity="1" fill-rule="nonzero"/></svg>