<svg xmlns="http://www.w3.org/2000/svg" xmlns:xlink="http://www.w3.org/1999/xlink" width="1920" zoomAndPan="magnify" viewBox="0 0 1440 265.499997" height="354" preserveAspectRatio="xMidYMid meet" version="1.0"><path fill="#0866ff" d="M 1264.273438 252.710938 L 1311.328125 252.710938 L 1311.328125 176.542969 L 1376.984375 252.710938 L 1434.558594 252.710938 L 1358.121094 164.925781 L 1423.414062 88.808594 L 1371.023438 88.808594 L 1311.328125 158.964844 L 1311.328125 4.085938 L 1264.273438 10.257812 Z M 1155.761719 84.609375 C 1103.527344 84.609375 1067.253906 119.765625 1067.253906 170.734375 C 1067.253906 221.703125 1103.527344 256.859375 1155.761719 256.859375 C 1207.996094 256.859375 1244.273438 221.703125 1244.273438 170.734375 C 1244.273438 119.765625 1207.996094 84.609375 1155.761719 84.609375 Z M 1155.761719 216.726562 C 1131.5625 216.726562 1114.980469 198.007812 1114.980469 170.734375 C 1114.980469 143.460938 1131.5625 124.742188 1155.761719 124.742188 C 1179.960938 124.742188 1196.542969 143.460938 1196.542969 170.734375 C 1196.542969 198.007812 1179.960938 216.726562 1155.761719 216.726562 Z M 964.542969 84.609375 C 912.308594 84.609375 876.035156 119.765625 876.035156 170.734375 C 876.035156 221.703125 912.308594 256.859375 964.542969 256.859375 C 1016.777344 256.859375 1053.050781 221.703125 1053.050781 170.734375 C 1053.050781 119.765625 1016.777344 84.609375 964.542969 84.609375 Z M 964.542969 216.726562 C 940.34375 216.726562 923.761719 198.007812 923.761719 170.734375 C 923.761719 143.460938 940.34375 124.742188 964.542969 124.742188 C 988.742188 124.742188 1005.324219 143.460938 1005.324219 170.734375 C 1005.324219 198.007812 988.742188 216.726562 964.542969 216.726562 Z M 784.464844 84.609375 C 762.703125 84.609375 744.667969 93.164062 733.371094 108.824219 L 733.371094 4.085938 L 686.265625 10.203125 L 686.265625 252.660156 L 728.035156 252.660156 L 728.863281 227.355469 C 740.003906 246.230469 759.953125 256.859375 784.464844 256.859375 C 829.136719 256.859375 861.835938 220.5625 861.835938 170.734375 C 861.835938 120.90625 829.292969 84.609375 784.464844 84.609375 Z M 773.324219 216.726562 C 749.125 216.726562 732.542969 198.007812 732.542969 170.734375 C 732.542969 143.460938 749.125 124.742188 773.324219 124.742188 C 797.523438 124.742188 814.109375 143.460938 814.109375 170.734375 C 814.109375 198.007812 797.523438 216.726562 773.324219 216.726562 Z M 591.953125 218.851562 C 566.976562 218.851562 549.046875 207.238281 542.929688 187.222656 L 658.851562 187.222656 C 659.992188 181.105469 660.769531 173.84375 660.769531 168.972656 C 660.769531 116.238281 631.285156 84.609375 581.742188 84.609375 C 531.738281 84.609375 497.121094 119.765625 497.121094 170.734375 C 497.121094 222.378906 533.394531 256.859375 587.238281 256.859375 C 615.117188 256.859375 642.21875 247.527344 659.164062 232.023438 L 642.21875 202.15625 C 625.792969 213.511719 609.675781 218.851562 591.953125 218.851562 Z M 581.433594 121.214844 C 603.199219 121.214844 617.085938 134.4375 617.085938 154.917969 L 617.085938 155.078125 L 541.945312 155.078125 C 546.453125 133.351562 560.496094 121.214844 581.433594 121.214844 Z M 423.433594 256.910156 C 447.789062 256.910156 471.625 247.578125 488.414062 231.398438 L 470.019531 200.445312 C 456.957031 210.609375 442.140625 216.105469 428.09375 216.105469 C 401.976562 216.105469 384.566406 197.851562 384.566406 170.785156 C 384.566406 143.71875 401.976562 125.46875 428.09375 125.46875 C 441 125.46875 455.042969 130.132812 466.441406 138.378906 L 485.148438 106.75 C 470.019531 93.0625 446.59375 84.660156 423.378906 84.660156 C 372.285156 84.660156 336.164062 120.335938 336.164062 170.785156 C 336.214844 221.082031 372.335938 256.910156 423.433594 256.910156 Z M 273.824219 88.808594 L 272.996094 114.320312 C 261.855469 95.292969 241.902344 84.660156 217.394531 84.660156 C 172.566406 84.660156 140.023438 120.957031 140.023438 170.785156 C 140.023438 220.613281 172.773438 256.910156 217.394531 256.910156 C 241.902344 256.910156 261.90625 246.28125 272.996094 227.40625 L 273.824219 252.710938 L 315.59375 252.710938 L 315.59375 88.808594 Z M 228.535156 216.726562 C 204.335938 216.726562 187.75 198.007812 187.75 170.734375 C 187.75 143.460938 204.335938 124.742188 228.535156 124.742188 C 252.734375 124.742188 269.316406 143.460938 269.316406 170.734375 C 269.316406 198.007812 252.683594 216.726562 228.535156 216.726562 Z M 136.5 89.117188 L 94.164062 89.117188 L 94.164062 75.117188 C 94.164062 54.167969 102.351562 46.132812 123.597656 46.132812 C 130.179688 46.132812 135.515625 46.289062 138.574219 46.597656 L 138.574219 10.667969 C 132.769531 9.058594 118.621094 7.453125 110.433594 7.453125 C 67.164062 7.453125 47.214844 27.878906 47.214844 72.003906 L 47.214844 89.066406 L 20.472656 89.066406 L 20.472656 128.679688 L 47.214844 128.679688 L 47.214844 252.65625 L 94.214844 252.65625 L 94.214844 128.730469 L 129.246094 128.730469 Z M 136.5 89.117188 " fill-opacity="1" fill-rule="nonzero"/></svg>